<?xml version="1.0" standalone="yes"?>
<svg xmlns="http://www.w3.org/2000/svg" width="149" height="106">
<path style="fill:#d2d3cf; stroke:none;" d="M0 0L0 2L118 2L118 23L119 23L119 2L129 2L128.682 21L123.148 32L123 66L129 66C127.941 61.5533 125.997 51.2482 129.603 47.6026C134.845 42.304 143.53 41.5957 147.821 33.8302C152.24 25.8338 149 9.03804 149 0L0 0z"/>
<path style="fill:#04428b; stroke:none;" d="M0 2L0 105L72 105C65.2224 93.7268 68.7546 83.3619 83 81.213C87.2224 80.576 90.8975 82.2497 95 82.25C112.836 82.2511 131.173 81.1948 149 81L149 34C142.19 38.7967 137.964 46.7091 129 47L129 67L123 67L123.148 32L127.973 22L128 2L119 2L119 23L103 23L103 67L97 67L97 33L78 33C78 40.5277 81.325 58.4319 76.973 64.6628C74.9976 67.4911 72.046 65.6213 71.3187 62.9406C70.0599 58.301 71.0868 51.8568 71 47L52 47L52 67L46 67L46 28L26 28L26 67L20 67L20 47C-3.08523 46.7272 5.4313 14.9434 0 2z"/>
<path style="fill:#4776a3; stroke:none;" d="M1 2L1 24L2 24L1 2z"/>
<path style="fill:#fde73a; stroke:none;" d="M2 2C2 17.204 -0.184725 45.9836 21 46L21 53L26 53L26 27L46 27L47 39C53.5477 37.4411 60.7759 37.394 59 46L72 46L72 53L77 53L77 33L98 33L98 41L103 41L103 23L118 23L118 2L2 2z"/>
<path style="fill:#4776a3; stroke:none;" d="M128 2L128 22L129 22L128 2M128 23L129 24L128 23M105 24L105 25L109 25L105 24M111 24L111 25L115 25L115 30C116.419 26.264 114.686 24.6148 111 24M127 24L128 25L127 24z"/>
<path style="fill:#d2d3cf; stroke:none;" d="M2 25L3 26L2 25M105 25L105 30L109 30L109 25L105 25M111 25L111 31L115 31L115 25L111 25z"/>
<path style="fill:#4776a3; stroke:none;" d="M126 25L127 26L126 25M2.33333 26.6667L2.66667 27.3333L2.33333 26.6667M125 26L126 27L125 26M26 27L26 28L46 28L26 27M124 27L125 28L124 27M123 28L124 29L123 28z"/>
<path style="fill:#d2d3cf; stroke:none;" d="M3 29L4 30L3 29M34 29L34 35L38 35L38 29L34 29M40 29L40 35L44 35L44 29L40 29z"/>
<path style="fill:#4776a3; stroke:none;" d="M109 29L110 30L109 29M3 30L4 31L3 30M105 30L105 31L109 31L105 30M116 32L121 35L121 33L117 33L117 32L121 32L116 32z"/>
<path style="fill:#d2d3cf; stroke:none;" d="M4 32L5 33L4 32M105 32L105 33L109 33L105 32z"/>
<path style="fill:#4776a3; stroke:none;" d="M109 32L110 33L109 32z"/>
<path style="fill:#d2d3cf; stroke:none;" d="M117 32L117 33L121 33L117 32z"/>
<path style="fill:#4776a3; stroke:none;" d="M4 33L5 34L4 33z"/>
<path style="fill:#d2d3cf; stroke:none;" d="M25 33L25 43L26 43L25 33z"/>
<path style="fill:#4776a3; stroke:none;" d="M77 33L77 66L72 66L72 55L71 55C71 57.2355 73.0824 73.4173 77.3966 64.6813C80.3063 58.7896 79.4907 38.9357 77 33M97 33L97 67L103 67L103 66L98 66L97 33M105 33L105 34L109 34L105 33M148 33L149 34L148 33z"/>
<path style="fill:#d2d3cf; stroke:none;" d="M5 34L6 35L5 34z"/>
<path style="fill:#4776a3; stroke:none;" d="M85 34L85 35L89 35L89 41L90 41L90 34L85 34M91 34L91 35L95 35L95 40L91 40L91 41L95 42L96 34L91 34M111 34L111 35L115 35L111 34M5 35L6 36L5 35z"/>
<path style="fill:#d2d3cf; stroke:none;" d="M85 35C85.2626 38.4098 85.6787 39.9011 89 41L89 35L85 35M91 35L91 40L95 40L95 35L91 35M111 35L111 41L115 41L115 35L111 35M117 35L117 40L121 40L121 35L117 35M28 36L28 38L32 38L32 36L28 36z"/>
<path style="fill:#4776a3; stroke:none;" d="M32.3333 36.6667L32.6667 37.3333L32.3333 36.6667z"/>
<path style="fill:#d2d3cf; stroke:none;" d="M40 36L40 38L44 38L44 36L40 36z"/>
<path style="fill:#4776a3; stroke:none;" d="M145 36L146 37L145 36M6 37L7 38L6 37M39 37L40 38L39 37M144 37L145 38L144 37z"/>
<path style="fill:#d2d3cf; stroke:none;" d="M7 38L8 39L7 38M46 38C48.0074 46.4318 48.0074 57.5683 46 66L51 66L51 46C54.187 45.9887 65.484 42.4476 57.6821 38.6034C54.4302 37.0011 49.5435 38.2438 46 38z"/>
<path style="fill:#4776a3; stroke:none;" d="M143 38L144 39L143 38M7 39L8 40L7 39z"/>
<path style="fill:#d2d3cf; stroke:none;" d="M28 39L28 45L32 45L32 39L28 39M34 39L34 45L38 45L38 39L34 39z"/>
<path style="fill:#4776a3; stroke:none;" d="M38 39L38 45L39 45L38 39M46 39L46 65L47 65L46 39M58 39L59 40L58 39M142 39L143 40L142 39z"/>
<path style="fill:#d2d3cf; stroke:none;" d="M8 40L9 41L8 40z"/>
<path style="fill:#4776a3; stroke:none;" d="M85 40L86 41L85 40M117 40L117 41L121 41L117 40M141 40L142 41L141 40M79 41L79 42L84 42L79 41z"/>
<path style="fill:#04428b; stroke:none;" d="M93 41L94 42L93 41z"/>
<path style="fill:#d2d3cf; stroke:none;" d="M98 41L98 66L103 66L103 41L98 41z"/>
<path style="fill:#4776a3; stroke:none;" d="M105 41L105 42L109 42L109 43L105 43L105 45L110 42L105 41M140 41L141 42L140 41M9 42L10 43L9 42z"/>
<path style="fill:#d2d3cf; stroke:none;" d="M79 42L79 43L84 43L79 42M91 42L91 43L96 43L91 42z"/>
<path style="fill:#4776a3; stroke:none;" d="M102 42L103 43L102 42z"/>
<path style="fill:#d2d3cf; stroke:none;" d="M105 42L105 43L109 43L105 42z"/>
<path style="fill:#4776a3; stroke:none;" d="M116 42L116 43L121 44L121 43L116 42z"/>
<path style="fill:#d2d3cf; stroke:none;" d="M117 42L117 43L121 43L117 42z"/>
<path style="fill:#4776a3; stroke:none;" d="M139 42L140 43L139 42M79 43L79 45L84 45L79 43M91 43L91 44L96 44L91 43M138 43L139 44L138 43M85 44L85 45L89 45L89 50L85 50L85 51L90 51L90 44L85 44M111 44L111 45L115 45L115 50L111 50C116.529 51.8118 116.668 44.946 111 44M137 44L138 45L137 44M11 45L12 46L11 45z"/>
<path style="fill:#d2d3cf; stroke:none;" d="M79 45L79 50L84 50L84 45L79 45M85 45L85 50L89 50L89 45L85 45M105 45L105 50L109 50L109 45L105 45M111 45L111 50L115 50L115 45L111 45z"/>
<path style="fill:#4776a3; stroke:none;" d="M136 45L137 46L136 45M12 46L13 47L12 46z"/>
<path style="fill:#d2d3cf; stroke:none;" d="M13 46L14 47L13 46z"/>
<path style="fill:#4776a3; stroke:none;" d="M14 46L14 47L20 47L14 46z"/>
<path style="fill:#d2d3cf; stroke:none;" d="M20 46L21 66L26 66L26 53L21 53L20 46M28 46L28 48L32 48L32 46L28 46z"/>
<path style="fill:#4776a3; stroke:none;" d="M32.3333 46.6667L32.6667 47.3333L32.3333 46.6667M39.3333 46.6667L39.6667 47.3333L39.3333 46.6667z"/>
<path style="fill:#d2d3cf; stroke:none;" d="M40 46L40 48L44 48L44 46L40 46z"/>
<path style="fill:#4776a3; stroke:none;" d="M51 46L51 66L46 66L46 67L52 67L52 47L71 47L71 54C75.6346 42.834 57.2784 46 51 46z"/>
<path style="fill:#d2d3cf; stroke:none;" d="M71 46L72 47L71 46z"/>
<path style="fill:#4776a3; stroke:none;" d="M83.3333 46.6667L83.6667 47.3333L83.3333 46.6667M129 46L129 47L136 47L129 46M128 47L128 65L129 65L128 47M2 48L3 49L2 48z"/>
<path style="fill:#d2d3cf; stroke:none;" d="M2 52L7 52L7 49C3.86282 48.5057 3.00038 48.9641 2 52z"/>
<path style="fill:#4776a3; stroke:none;" d="M6 48L7 49L6 48M8 48L9 49L8 48z"/>
<path style="fill:#d2d3cf; stroke:none;" d="M12 53L12 48C8.15642 49.2775 8.15642 51.7225 12 53z"/>
<path style="fill:#4776a3; stroke:none;" d="M12 48L12 53L13 53L12 48M53 48L53 53L54 53L53 48z"/>
<path style="fill:#d2d3cf; stroke:none;" d="M54 48L54 53C57.8436 51.7225 57.8436 49.2775 54 48z"/>
<path style="fill:#4776a3; stroke:none;" d="M57 48L58 49L57 48M65 48L66 49L65 48z"/>
<path style="fill:#d2d3cf; stroke:none;" d="M65 52L70 52C68.7225 48.1564 66.2775 48.1564 65 52z"/>
<path style="fill:#4776a3; stroke:none;" d="M69 48L70 49L69 48z"/>
<path style="fill:#d2d3cf; stroke:none;" d="M131 48L131 52L135 52L135 48L131 48M143 48L143 53L147 53L147 48L143 48M34 49L34 55L38 55L38 49L34 49M40 49L40 55L44 55L44 49L40 49z"/>
<path style="fill:#4776a3; stroke:none;" d="M130 49L130 52L131 52L130 49M142 49L142 53L143 53L142 49M6 50L7 51L6 50M79 50L79 52L84 52L84 50L79 50M105 50L105 52L109 52L109 53L105 53L105 54L110 53L105 50M91 51L91 52L96 52L91 51M116 52L121 55L121 53L117 53L117 52L121 52L116 52M2 52L2 54L7 54L7 52L2 52M8 52L9 53L8 52M57 52L58 53L57 52M65 52L65 54L70 54L70 52L65 52z"/>
<path style="fill:#d2d3cf; stroke:none;" d="M79 52L79 53L84 53L79 52M91 52L91 53L96 53L91 52M105 52L105 53L109 53L105 52M117 52L117 53L121 53L117 52z"/>
<path style="fill:#4776a3; stroke:none;" d="M130 60L131 60L131 57L135 57L135 56L131 55L131 54L135 54L135 52C130.389 52.8057 130.304 55.7732 130 60M14 53L14 54L18 54L18 55L14 56L14 57L18 57L18 60L14 60L14 61L18 62L18 63L14 63L14 64L19 64L19 53L14 53M20 53L20 67L26 67L26 66L21 66L20 53M59 53L59 54L64 54L59 53z"/>
<path style="fill:#d2d3cf; stroke:none;" d="M72 53L72 66L77 66L77 53L72 53z"/>
<path style="fill:#4776a3; stroke:none;" d="M79 53L79 54L84 54L79 53M91 54L91 55L95 55L95 60L91 61L91 62L96 62C95.7231 57.7622 96.5409 53.1534 91 54M136 54L136 55L141 56L141 55L137 55L137 54L141 54L136 54z"/>
<path style="fill:#d2d3cf; stroke:none;" d="M2 54L2 55L7 55L2 54M14 54L14 55L18 55L14 54z"/>
<path style="fill:#4776a3; stroke:none;" d="M25 54L26 55L25 54z"/>
<path style="fill:#d2d3cf; stroke:none;" d="M59 54L59 55L64 55L59 54M65 54L65 55L70 55L65 54z"/>
<path style="fill:#4776a3; stroke:none;" d="M85 54L86 55L85 54z"/>
<path style="fill:#d2d3cf; stroke:none;" d="M85 60L89 60L89 54C85.6787 55.0989 85.2626 56.5902 85 60z"/>
<path style="fill:#4776a3; stroke:none;" d="M89 54L89 60L85 60L85 61L90 61L89 54z"/>
<path style="fill:#d2d3cf; stroke:none;" d="M111 54L111 60L115 60L115 54L111 54M131 54L131 55L135 55L131 54M137 54L137 55L141 55L137 54z"/>
<path style="fill:#4776a3; stroke:none;" d="M2 55L2 56L7 56L2 55M60 55L60 56L64 56L60 55M65 56L65 57L70 57L65 56z"/>
<path style="fill:#d2d3cf; stroke:none;" d="M91 55L91 60L95 60L95 55L91 55M117 55L117 60L121 60L121 55L117 55z"/>
<path style="fill:#4776a3; stroke:none;" d="M8 56L9 57L8 56z"/>
<path style="fill:#d2d3cf; stroke:none;" d="M12 61L12 56C8.15642 57.2775 8.15642 59.7225 12 61z"/>
<path style="fill:#4776a3; stroke:none;" d="M12 56L12 61L13 61L12 56z"/>
<path style="fill:#d2d3cf; stroke:none;" d="M28 56L28 58L32 58L32 56L28 56z"/>
<path style="fill:#4776a3; stroke:none;" d="M32.3333 56.6667L32.6667 57.3333L32.3333 56.6667M39.3333 56.6667L39.6667 57.3333L39.3333 56.6667z"/>
<path style="fill:#d2d3cf; stroke:none;" d="M40 56L40 58L44 58L44 56L40 56z"/>
<path style="fill:#4776a3; stroke:none;" d="M53 56L53 69L54 69L54 65L58 65L58 63L54 63L54 62L58 61L58 60L54 60L53 56z"/>
<path style="fill:#d2d3cf; stroke:none;" d="M54 56L54 60L58 60L54 56z"/>
<path style="fill:#4776a3; stroke:none;" d="M57 56L58 57L57 56M142 56L142 69L143 69L143 65L147 65L147 63L143 63L143 62L147 62L147 60L143 60L142 56z"/>
<path style="fill:#d2d3cf; stroke:none;" d="M143 56L143 60L147 60L147 56L143 56M14 57L14 60L18 60L18 57L14 57M65 57C66.2775 60.8436 68.7225 60.8436 70 57L65 57M131 57L131 61L135 61L135 57L131 57M28 59L28 65L32 65L32 59L28 59M34 59L34 65L38 65L38 59L34 59z"/>
<path style="fill:#4776a3; stroke:none;" d="M38 59L38 65L39 65L38 59M8 60L9 61L8 60M65 60L66 61L65 60M69 60L70 61L69 60M111 60L111 61L115 61L111 60M116 63L121 64L121 63L117 63L117 62L121 62L121 60L116 63M2 61L2 62L7 62L2 61M59 64L64 64L64 63L60 63L60 62L64 62L59 64M79 61L79 62L84 62L79 61M105 61L105 62L110 63L105 61M136 62L136 63L141 64L141 63L137 63L137 62L141 62L136 62z"/>
<path style="fill:#d2d3cf; stroke:none;" d="M2 62L2 63L7 63L2 62M14 62L14 63L18 63L14 62M54 62L54 63L58 63L54 62M60 62L60 63L64 63L60 62M79 62L79 63L84 63L79 62M91 62L91 63L96 63L91 62M105 62L105 63L109 63L105 62M117 62L117 63L121 63L117 62M137 62L137 63L141 63L137 62M143 62L143 63L147 63L143 62z"/>
<path style="fill:#4776a3; stroke:none;" d="M2 63L2 65L7 64L2 63M91 63L91 64L95 64L91 63M8 64L8 65L12 65L12 69L13 69L13 64L8 64M65 64L65 65L70 65L65 64M79 64L79 65L84 65L79 64M85 64L86 65L85 64z"/>
<path style="fill:#d2d3cf; stroke:none;" d="M89 72L89 64C84.2265 65.5845 84.2265 70.4155 89 72z"/>
<path style="fill:#4776a3; stroke:none;" d="M89 64L89 72L90 72L89 64M105 64L105 65L109 65L105 64z"/>
<path style="fill:#d2d3cf; stroke:none;" d="M111 64L111 72L115 72L115 64L111 64z"/>
<path style="fill:#4776a3; stroke:none;" d="M130 69L131 69L131 65L135 65C131.572 63.8756 130.535 65.7798 130 69z"/>
<path style="fill:#d2d3cf; stroke:none;" d="M2 65C3.00038 68.0359 3.86282 68.4943 7 68L7 65L2 65M8 65L8 69L12 69L12 65L8 65M54 65L54 69L58 69L58 65L54 65M65 65C66.2775 68.8436 68.7225 68.8436 70 65L65 65M79 65C79.1319 69.0153 79.4954 71.6883 84 71L84 65L79 65M105 65L105 72L109 72L109 65L105 65z"/>
<path style="fill:#4776a3; stroke:none;" d="M115 65L115 71L116 71L115 65z"/>
<path style="fill:#d2d3cf; stroke:none;" d="M131 65L131 69L135 69L135 65L131 65M143 65L143 69L147 69L147 65L143 65z"/>
<path style="fill:#4776a3; stroke:none;" d="M6 66L7 67L6 66z"/>
<path style="fill:#d2d3cf; stroke:none;" d="M28 66L28 72L32 72L32 66L28 66z"/>
<path style="fill:#4776a3; stroke:none;" d="M32 66L32 71L33 71L32 66M39 66L39 71L40 71L39 66z"/>
<path style="fill:#d2d3cf; stroke:none;" d="M40 66L40 72L44 72L44 66L40 66z"/>
<path style="fill:#4776a3; stroke:none;" d="M83 66L83 70L84 70L83 66M123 66L123 67L129 67L123 66M44 67L45 68L44 67M2 68L3 69L2 68M6 68L7 69L6 68M65 68L66 69L65 68M69 68L70 69L69 68M15 69L15 70L18 72L19 72L15 69M59 72L60 72L63 70L59 72M136 70L136 71L141 70L136 70z"/>
<path style="fill:#d2d3cf; stroke:none;" d="M2 70L2 71L7 71L2 70M14 70L14 71L18 72L14 70z"/>
<path style="fill:#4776a3; stroke:none;" d="M44 70L45 71L44 70z"/>
<path style="fill:#d2d3cf; stroke:none;" d="M60 72L64 71L60 72M65 70L65 71L70 71L65 70z"/>
<path style="fill:#4776a3; stroke:none;" d="M109 70L110 71L109 70M130.333 70.6667L130.667 71.3333L130.333 70.6667z"/>
<path style="fill:#d2d3cf; stroke:none;" d="M131 70L131 72L135 72L135 70L131 70M137 70L137 72L141 72L141 70L137 70z"/>
<path style="fill:#4776a3; stroke:none;" d="M2 71L3 72L2 71M6 71L7 72L6 71M14 71L15 72L14 71M63 71L64 72L63 71M65 71L66 72L65 71M69 71L70 72L69 71M79 71L80 72L79 71M83 71L84 72L83 71M85 71L86 72L85 71z"/>
<path style="fill:#ee215d; stroke:none;" d="M149 105L149 81C127.525 81.1896 103.153 77.988 82 81.213C74.0085 82.4313 65.0269 88.8284 67.7423 97.9992C70.4258 107.063 80.6557 105 88 105L149 105z"/>
<path style="fill:#4776a3; stroke:none;" d="M141 81L142 82L141 81M138 82L139 83L138 82M69 101L70 102L69 101z"/>
<path style="fill:#d2d3cf; stroke:none;" d="M0 105L0 106L149 106C137.306 101.093 116.73 105 104 105L0 105z"/>
</svg>
